<?xml version="1.0" encoding="UTF-8"?>
<!DOCTYPE svg PUBLIC "-//W3C//DTD SVG 1.1//EN" "http://www.w3.org/Graphics/SVG/1.1/DTD/svg11.dtd">
<!-- Creator: CorelDRAW 2021 (64-Bit) -->
<svg xmlns="http://www.w3.org/2000/svg" xml:space="preserve" width="8.26772in" height="8.26772in" version="1.1" style="shape-rendering:geometricPrecision; text-rendering:geometricPrecision; image-rendering:optimizeQuality; fill-rule:evenodd; clip-rule:evenodd"
viewBox="0 0 8267.72 8267.72"
 xmlns:xlink="http://www.w3.org/1999/xlink"
 xmlns:xodm="http://www.corel.com/coreldraw/odm/2003">
 <defs>
  <style type="text/css">
   <![CDATA[
    .fil3 {fill:black}
    .fil2 {fill:black}
    .fil0 {fill:#DBAE5F}
    .fil4 {fill:white}
    .fil7 {fill:#1A1A1A;fill-rule:nonzero}
    .fil6 {fill:#333333;fill-rule:nonzero}
    .fil1 {fill:#DBAE5F;fill-opacity:0.400000}
    .fil5 {fill:#7ED957}
   ]]>
  </style>
 </defs>
 <g id="Layer_x0020_1">
  <metadata id="CorelCorpID_0Corel-Layer"/>
  <g id="_1852689631744">
   <path class="fil0" d="M872.32 4206.06l4516.17 0c36.26,0 65.91,29.66 65.91,65.91l0 0.01c0,36.26 -29.65,65.91 -65.91,65.91l-4516.17 0c-36.26,0 -65.91,-29.65 -65.91,-65.91l0 -0.01c0,-36.26 29.65,-65.91 65.91,-65.91z"/>
   <polygon class="fil1" points="2515.02,5294.51 7455.69,5294.51 7455.69,5426.35 2515.02,5426.35 "/>
   <polygon class="fil0" points="5454.4,2227.18 6567.91,2870.88 6567.91,5294.51 5454.4,5294.51 "/>
   <polygon class="fil2" points="6567.91,3326.47 7455.69,3829.66 7455.69,5294.51 6567.91,5294.51 "/>
   <polygon class="fil3" points="6181.66,2646.36 6567.91,2870.88 6567.91,5294.51 6181.66,5294.51 "/>
   <polygon class="fil0" points="6493.34,3494.13 7455.69,4046.88 7455.69,5294.51 6493.34,5294.51 "/>
   <polygon class="fil4" points="6491.83,3493.58 5676.84,3952.08 5676.84,5293.95 6491.83,5293.95 "/>
   <polygon class="fil3" points="6184.59,4616.47 6567.91,4616.47 6567.91,5294.51 6184.59,5294.51 "/>
   <polygon class="fil5" points="6491.83,3493.58 6567.91,3538.89 6567.91,4616.47 6181.66,4616.47 6181.66,3668.13 "/>
   <g>
    <polygon class="fil4" points="6728.85,4199.82 6986.7,4199.82 6986.7,4383.83 6728.85,4383.83 "/>
    <polygon class="fil4" points="6728.85,4429.74 6986.7,4429.74 6986.7,4613.75 6728.85,4613.75 "/>
    <polygon class="fil4" points="7038.36,4199.82 7296.21,4199.82 7296.21,4383.83 7038.36,4383.83 "/>
    <polygon class="fil4" points="7038.36,4429.74 7296.21,4429.74 7296.21,4613.75 7038.36,4613.75 "/>
   </g>
   <path class="fil6" d="M1461.15 3324.43l0 -72.08 368.16 0 0 72.08 -118.99 17.35 0 790.21 -117.59 0 -492.75 -651.39 0 559.29 159.58 17.35 0 72.08 -369.56 0 0 -72.08 118.99 -16.02 0 -682.09 -19.6 -25.36 -96.59 -9.34 0 -72.08 316.37 0 411.56 539.26 0 -449.83 -159.59 -17.35zm872.11 830.26c-57.86,0 -113.39,-9.57 -166.58,-28.7 -53.2,-19.13 -100.56,-48.05 -142.09,-86.76 -41.53,-38.71 -74.43,-86.99 -98.69,-144.83 -24.26,-57.84 -36.4,-125.92 -36.4,-204.22 0,-76.53 12.13,-143.72 36.4,-201.56 24.26,-57.84 57.39,-106.12 99.39,-144.83 42,-38.71 89.59,-67.85 142.78,-87.43 53.2,-19.58 108.26,-29.37 165.19,-29.37 57.86,0 113.15,9.57 165.88,28.7 52.73,19.13 100.09,47.83 142.09,86.1 42,38.26 75.13,86.54 99.39,144.83 24.26,58.29 36.4,126.14 36.4,203.56 0,77.42 -12.13,145.05 -36.4,202.89 -24.26,57.84 -57.16,106.12 -98.69,144.83 -41.53,38.71 -88.89,67.85 -142.09,87.43 -53.19,19.58 -108.72,29.37 -166.58,29.37zm0 -77.42c47.59,0 85.62,-16.91 114.09,-50.72 28.46,-33.81 49.23,-79.87 62.3,-138.15 13.07,-58.29 19.6,-124.36 19.6,-198.22 0,-73.86 -6.53,-139.71 -19.6,-197.56 -13.07,-57.84 -33.83,-103.67 -62.3,-137.48 -28.46,-33.81 -66.49,-50.72 -114.09,-50.72 -46.66,0 -84.46,16.91 -113.39,50.72 -28.93,33.81 -49.93,79.65 -63,137.48 -13.07,57.84 -19.6,123.69 -19.6,197.56 0,73.86 6.53,139.93 19.6,198.22 13.06,58.29 34.06,104.34 63,138.15 28.93,33.81 66.72,50.72 113.39,50.72zm1063.89 -756.84l0 -68.07 303.77 0 0 72.08 -104.99 16.02 -288.37 791.54 -135.78 0 -300.97 -799.56 -81.19 -8.01 0 -72.08 450.75 0 0 68.07 -118.98 14.68 191.78 549.94 193.18 -547.27 -109.19 -17.35zm544.54 136.15l-116.19 340.38 229.57 0 -113.39 -340.38zm-393.36 672.75l0 -72.08 113.39 -16.02 284.17 -790.21 144.18 0 286.97 799.55 85.39 9.35 0 69.41 -432.56 0 0 -69.41 107.79 -13.35 -57.39 -172.19 -281.37 0 -56 166.85 106.39 16.02 0 72.08 -300.97 0zm960.3 0l0 -61.4 449.35 -739.49 -288.37 0 -36.4 172.19 -110.59 0 11.2 -248.28 692.93 0 0 61.4 -449.35 739.49 314.97 0 36.4 -172.19 111.98 0 -11.2 248.28 -720.93 0z"/>
   <path class="fil6" d="M2807.11 4638.15l-88 257.81 173.89 0 -85.88 -257.81zm-297.94 509.56l0 -54.59 85.88 -12.13 215.24 -598.53 109.21 0 217.36 605.61 64.68 7.07 0 52.57 -327.63 0 0 -52.57 81.64 -10.11 -43.47 -130.42 -213.12 0 -42.41 126.38 80.58 12.13 0 54.59 -227.96 0zm1480.73 -605.61l-42.41 0c-0.7,41.79 -1.24,83.41 -1.59,124.86 -0.36,41.45 -0.54,81.05 -0.54,118.8l40.3 0c35.34,0 62.91,-5.73 82.7,-17.19 19.79,-11.46 33.93,-26.63 42.41,-45.5 8.48,-18.87 12.72,-39.09 12.72,-60.66 0,-80.21 -44.53,-120.31 -133.59,-120.31zm-301.13 -4.04l0 -54.59 344.6 0c83.41,0 147.56,14.83 192.44,44.48 44.89,29.66 67.33,70.77 67.33,123.35 0,22.24 -6.01,44.31 -18.03,66.22 -12.02,21.91 -31.81,41.11 -59.37,57.63 -27.57,16.51 -65.03,28.48 -112.39,35.89 40.29,4.72 71.74,13.99 94.36,27.8 22.62,13.82 39.59,31.68 50.89,53.59 11.31,21.91 19.44,48.7 24.39,80.37l20.15 112.22 80.58 8.09 0 54.59c-16.97,3.37 -31.1,6.24 -42.41,8.59 -11.31,2.36 -22.44,3.87 -33.4,4.55 -10.96,0.68 -24.57,1.01 -40.82,1.01 -45.24,0 -80.76,-7.41 -106.56,-22.24 -25.8,-14.83 -41.53,-41.79 -47.18,-80.88l-19.09 -117.28c-4.94,-33.7 -15.02,-58.64 -30.22,-74.82 -15.19,-16.17 -38.7,-24.26 -70.51,-24.26l-38.17 0c0,43.14 0.18,84.59 0.54,124.36 0.35,39.76 0.88,79.2 1.59,118.29l82.7 8.09 0 54.59 -341.41 0 0 -54.59 79.53 -8.09c1.41,-41.11 2.12,-82.57 2.12,-124.35 0,-41.79 0,-83.92 0,-126.38l0 -37.41c0,-41.79 0,-83.75 0,-125.87 0,-42.13 -0.71,-83.74 -2.12,-124.86l-79.53 -8.09zm1513.6 628.86c-67.86,0 -129.71,-12.97 -185.55,-38.93 -55.84,-25.95 -100.2,-64.87 -133.07,-116.77 -32.87,-51.9 -49.3,-117.28 -49.3,-196.14 0,-59.98 10.07,-111.89 30.22,-155.7 20.14,-43.81 47.71,-80.21 82.7,-109.19 34.99,-28.98 75.1,-50.55 120.34,-64.71 45.24,-14.15 92.6,-21.23 142.08,-21.23 40.29,0 77.05,4.21 110.27,12.64 33.22,8.43 65.74,21.06 97.55,37.91l4.24 156.71 -80.58 0 -30.75 -132.44c-24.03,-11.46 -49.48,-17.19 -76.34,-17.19 -37.46,0 -72.27,10.11 -104.44,30.33 -32.16,20.22 -58.14,52.07 -77.93,95.54 -19.79,43.47 -29.69,99.59 -29.69,168.33 0,68.75 9.54,124.53 28.63,167.33 19.08,42.8 44.35,74.31 75.81,94.53 31.46,20.22 65.91,30.33 103.38,30.33 14.85,0 29.69,-1.69 44.54,-5.06 14.84,-3.37 29.69,-8.09 44.53,-14.15l29.69 -129.41 80.58 0 -4.24 155.7c-28.28,14.83 -60.97,27.13 -98.08,36.91 -37.11,9.77 -78.64,14.66 -124.58,14.66z"/>
   <path class="fil7" d="M2993.5 5960.2l0 82.96 -26.66 0 0 -212.17 67.64 0c19.7,0 35.22,5.92 46.46,17.7 11.29,11.84 16.91,27.56 16.91,47.2 0,20.39 -5.37,36.16 -16.11,47.15 -10.74,11.04 -25.86,16.76 -45.36,17.16l-42.87 0zm0 -22.98l40.98 0c11.84,0 20.94,-3.53 27.26,-10.65 6.27,-7.11 9.45,-17.26 9.45,-30.49 0,-12.73 -3.24,-22.93 -9.75,-30.59 -6.52,-7.71 -15.47,-11.54 -26.81,-11.54l-41.13 0 0 83.26zm246.67 20.29l-37.3 0 0 85.65 -26.81 0 0 -212.17 59.43 0c20.79,0 36.51,5.42 47.2,16.26 10.69,10.84 16.06,26.76 16.06,47.65 0,13.13 -2.93,24.62 -8.7,34.37 -5.77,9.8 -13.98,17.16 -24.52,22.13l41.08 90.02 0 1.74 -28.7 0 -37.75 -85.65zm-37.3 -22.98l32.33 0c11.19,0 20.09,-3.58 26.76,-10.8 6.67,-7.21 9.95,-16.86 9.95,-28.9 0,-27.25 -12.33,-40.88 -37,-40.88l-32.03 0 0 80.57zm313.36 21.19c0,29 -6.17,51.28 -18.5,66.94 -12.33,15.67 -29.89,23.48 -52.62,23.48 -21.88,0 -39.14,-7.61 -51.82,-22.83 -12.63,-15.22 -19.25,-36.7 -19.75,-64.51l0 -39.94c0,-28.4 6.27,-50.63 18.8,-66.74 12.53,-16.07 30.04,-24.12 52.47,-24.12 22.33,0 39.74,7.71 52.22,23.13 12.48,15.37 18.9,37.4 19.2,65.95l0 38.65zm-26.71 -37.15c0,-22.43 -3.63,-39.09 -10.99,-50.03 -7.31,-10.89 -18.56,-16.37 -33.72,-16.37 -14.67,0 -25.76,5.52 -33.27,16.61 -7.56,11.04 -11.34,27.35 -11.44,48.94l0 38c0,21.64 3.73,38.15 11.29,49.49 7.51,11.39 18.75,17.06 33.72,17.06 14.97,0 26.01,-5.22 33.22,-15.72 7.16,-10.49 10.94,-26.56 11.19,-48.19l0 -39.79zm138.24 41.63l0 82.96 -26.66 0 0 -212.17 67.64 0c19.7,0 35.22,5.92 46.46,17.7 11.29,11.84 16.91,27.56 16.91,47.2 0,20.39 -5.37,36.16 -16.11,47.15 -10.74,11.04 -25.86,16.76 -45.36,17.16l-42.87 0zm0 -22.98l40.98 0c11.84,0 20.94,-3.53 27.26,-10.65 6.27,-7.11 9.45,-17.26 9.45,-30.49 0,-12.73 -3.24,-22.93 -9.75,-30.59 -6.52,-7.71 -15.47,-11.54 -26.81,-11.54l-41.13 0 0 83.26zm284.22 8.06l-75.06 0 0 74.91 87.44 0 0 22.98 -114.09 0 0 -212.17 112.65 0 0 22.98 -86 0 0 68.34 75.06 0 0 22.98zm154.36 12.24l-37.3 0 0 85.65 -26.81 0 0 -212.17 59.43 0c20.79,0 36.51,5.42 47.2,16.26 10.69,10.84 16.06,26.76 16.06,47.65 0,13.13 -2.93,24.62 -8.7,34.37 -5.77,9.8 -13.98,17.16 -24.52,22.13l41.08 90.02 0 1.74 -28.7 0 -37.75 -85.65zm-37.3 -22.98l32.33 0c11.19,0 20.09,-3.58 26.76,-10.8 6.67,-7.21 9.95,-16.86 9.95,-28.9 0,-27.25 -12.33,-40.88 -37,-40.88l-32.03 0 0 80.57zm287.6 -80.57l-55.8 0 0 189.2 -26.66 0 0 -189.2 -55.66 0 0 -22.98 138.12 0 0 22.98zm132.63 83.56l43.42 -106.54 30.19 0 -60.33 133.04 0 79.13 -26.66 0 0 -79.13 -60.33 -133.04 30.29 0 43.42 106.54zm247.71 -106.54l55.41 173.13 55.35 -173.13 34.37 0 0 212.17 -26.66 0 0 -82.61 2.49 -82.81 -55.5 165.42 -20.39 0 -55.26 -164.83 2.48 82.22 0 82.61 -26.66 0 0 -212.17 34.37 0zm336.34 156.67l-71.72 0 -16.46 55.5 -27.35 0 68.33 -212.17 22.83 0 68.49 212.17 -27.35 0 -16.76 -55.5zm-64.7 -22.98l57.84 0 -29 -96.39 -28.85 96.39zm319.98 78.48l-26.81 0 -84.95 -163.48 0 163.48 -26.81 0 0 -212.17 26.81 0 85.25 164.23 0 -164.23 26.51 0 0 212.17zm191.56 -55.5l-71.72 0 -16.46 55.5 -27.35 0 68.33 -212.17 22.83 0 68.49 212.17 -27.35 0 -16.76 -55.5zm-64.7 -22.98l57.84 0 -29 -96.39 -28.85 96.39zm312.62 52.17l-4.63 5.82c-13.43,15.67 -33.03,23.48 -58.89,23.48 -22.93,0 -40.93,-7.61 -53.96,-22.83 -13.08,-15.22 -19.75,-36.7 -20.05,-64.51l0 -41.73c0,-29.74 5.92,-52.02 17.86,-66.84 11.89,-14.82 29.69,-22.23 53.37,-22.23 20.24,0 36.06,5.62 47.45,16.86 11.44,11.29 17.7,27.35 18.85,48.24l-26.66 0c-1.04,-13.23 -4.72,-23.52 -10.99,-30.98 -6.26,-7.41 -15.76,-11.14 -28.5,-11.14 -15.22,0 -26.41,4.97 -33.47,14.92 -7.11,9.95 -10.8,25.86 -11.09,47.7l0 43.27c0,21.39 4.08,37.75 12.23,49.19 8.16,11.39 19.85,17.11 35.11,17.11 14.37,0 25.31,-3.48 32.78,-10.44l3.93 -3.58 0 -48.64 -38.74 0 0 -22.98 65.41 0 0 79.33zm189.02 -71.57l-75.06 0 0 74.91 87.44 0 0 22.98 -114.09 0 0 -212.17 112.65 0 0 22.98 -86 0 0 68.34 75.06 0 0 22.98zm124.57 -114.29l55.41 173.13 55.35 -173.13 34.37 0 0 212.17 -26.66 0 0 -82.61 2.49 -82.81 -55.5 165.42 -20.39 0 -55.26 -164.83 2.48 82.22 0 82.61 -26.66 0 0 -212.17 34.37 0zm336.49 114.29l-75.06 0 0 74.91 87.44 0 0 22.98 -114.09 0 0 -212.17 112.65 0 0 22.98 -86 0 0 68.34 75.06 0 0 22.98zm228.71 97.88l-26.81 0 -84.95 -163.48 0 163.48 -26.81 0 0 -212.17 26.81 0 85.25 164.23 0 -164.23 26.51 0 0 212.17zm209.76 -189.2l-55.8 0 0 189.2 -26.66 0 0 -189.2 -55.66 0 0 -22.98 138.12 0 0 22.98z"/>
  </g>
 </g>
</svg>
